<svg width="18" height="22" viewBox="0 0 18 22" fill="none" xmlns="http://www.w3.org/2000/svg">
<g clip-path="url(#clip0_10274_2690)">
<path fill-rule="evenodd" clip-rule="evenodd" d="M2.571 3.37506H12.857C13.1946 3.37506 13.529 3.44156 13.8409 3.57077C14.1528 3.69997 14.4362 3.88935 14.675 4.12809C14.9137 4.36683 15.1031 4.65025 15.2323 4.96218C15.3615 5.27411 15.428 5.60843 15.428 5.94606V18.8041C15.428 19.1417 15.3615 19.476 15.2323 19.7879C15.1031 20.0999 14.9137 20.3833 14.675 20.622C14.4362 20.8608 14.1528 21.0501 13.8409 21.1794C13.529 21.3086 13.1946 21.3751 12.857 21.3751H2.571C1.88913 21.3751 1.23518 21.1042 0.753028 20.622C0.270872 20.1399 0 19.4859 0 18.8041V5.94606C0 5.26419 0.270872 4.61025 0.753028 4.12809C1.23518 3.64593 1.88913 3.37506 2.571 3.37506ZM2.571 4.66106C2.23028 4.66133 1.90359 4.79679 1.66266 5.03772C1.42173 5.27865 1.28626 5.60534 1.286 5.94606V18.8041C1.286 18.9729 1.31926 19.1402 1.38389 19.2962C1.44852 19.4522 1.54324 19.594 1.66266 19.7134C1.78208 19.8328 1.92384 19.9275 2.07987 19.9922C2.23589 20.0568 2.40312 20.0901 2.572 20.0901H12.857C13.0259 20.0901 13.1931 20.0568 13.3491 19.9922C13.5052 19.9275 13.6469 19.8328 13.7663 19.7134C13.8858 19.594 13.9805 19.4522 14.0451 19.2962C14.1097 19.1402 14.143 18.9729 14.143 18.8041V5.94606C14.143 5.60499 14.0075 5.27789 13.7663 5.03672C13.5252 4.79555 13.1981 4.66006 12.857 4.66006L2.571 4.66106Z" fill="white"/>
<path d="M5.1418 0.804047H15.4278C15.7654 0.804047 16.0998 0.870548 16.4117 0.999752C16.7236 1.12896 17.007 1.31834 17.2458 1.55708C17.4845 1.79581 17.6739 2.07924 17.8031 2.39117C17.9323 2.7031 17.9988 3.03742 17.9988 3.37505V16.233C17.9988 16.5707 17.9323 16.905 17.8031 17.2169C17.6739 17.5289 17.4845 17.8123 17.2458 18.051C17.007 18.2898 16.7236 18.4791 16.4117 18.6083C16.0998 18.7375 15.7654 18.804 15.4278 18.804V17.518C15.7689 17.518 16.096 17.3826 16.3371 17.1414C16.5783 16.9002 16.7138 16.5731 16.7138 16.232V3.37505C16.7138 3.03398 16.5783 2.70688 16.3371 2.46571C16.096 2.22454 15.7689 2.08905 15.4278 2.08905H5.1418C4.80091 2.08931 4.47406 2.22492 4.23311 2.46606C3.99215 2.7072 3.8568 3.03415 3.8568 3.37505H2.5708C2.5708 2.69318 2.84167 2.03923 3.32383 1.55708C3.80599 1.07492 4.45993 0.804047 5.1418 0.804047V0.804047Z" fill="white"/>
</g>
<defs>
<clipPath id="clip0_10274_2690">
<rect width="18" height="20.571" fill="white" transform="translate(0 0.804047)"/>
</clipPath>
</defs>
</svg>
