<svg width="24" height="25" viewBox="0 0 24 25" fill="none" xmlns="http://www.w3.org/2000/svg">
<path d="M9.19191 16.494H1.59991C1.22391 16.494 0.87991 16.366 0.60791 16.15L4.79991 8.89404L9.19191 16.494Z" fill="white"/>
<path d="M12.0001 10.4941L15.3121 16.2141C15.0481 16.3901 14.7361 16.4941 14.4001 16.4941H10.5761L9.56006 14.7341L12.0001 10.4941Z" fill="white"/>
<path d="M14.4 0.494141H1.6C0.72 0.494141 0 1.21414 0 2.09414V14.8141L4.28 7.39014C4.496 7.02214 5.104 7.02214 5.32 7.39014L8.864 13.5261L11.48 8.99014C11.696 8.62214 12.304 8.62214 12.52 8.99014L15.992 15.0061C16 14.9741 16 14.9341 16 14.8941V2.09414C16 1.21414 15.28 0.494141 14.4 0.494141ZM8.8 6.69414C8.032 6.69414 7.4 6.06214 7.4 5.29414C7.4 4.52614 8.032 3.89414 8.8 3.89414C9.568 3.89414 10.2 4.52614 10.2 5.29414C10.2 6.06214 9.568 6.69414 8.8 6.69414Z" fill="white"/>
<path d="M22.4 8.49414H17.2V14.8941C17.2 16.4381 15.944 17.6941 14.4 17.6941H8V22.8941C8 23.7741 8.72 24.4941 9.6 24.4941H22.4C23.28 24.4941 24 23.7741 24 22.8941V10.0941C24 9.21414 23.28 8.49414 22.4 8.49414ZM20.8 21.8941H11.2C10.872 21.8941 10.6 21.6221 10.6 21.2941C10.6 20.9661 10.872 20.6941 11.2 20.6941H20.8C21.128 20.6941 21.4 20.9661 21.4 21.2941C21.4 21.6221 21.128 21.8941 20.8 21.8941ZM20.8 18.6941H17.6C17.272 18.6941 17 18.4221 17 18.0941C17 17.7661 17.272 17.4941 17.6 17.4941H20.8C21.128 17.4941 21.4 17.7661 21.4 18.0941C21.4 18.4221 21.128 18.6941 20.8 18.6941ZM20.8 15.4941H18.4C18.072 15.4941 17.8 15.2221 17.8 14.8941C17.8 14.5661 18.072 14.2941 18.4 14.2941H20.8C21.128 14.2941 21.4 14.5661 21.4 14.8941C21.4 15.2221 21.128 15.4941 20.8 15.4941ZM20.8 12.2941H18.4C18.072 12.2941 17.8 12.0221 17.8 11.6941C17.8 11.3661 18.072 11.0941 18.4 11.0941H20.8C21.128 11.0941 21.4 11.3661 21.4 11.6941C21.4 12.0221 21.128 12.2941 20.8 12.2941Z" fill="white"/>
</svg>
