<svg width="22" height="20" viewBox="0 0 22 20" fill="none" xmlns="http://www.w3.org/2000/svg">
<path d="M21 17.0894V7.08936C21 6.55892 20.7893 6.05021 20.4142 5.67514C20.0391 5.30007 19.5304 5.08936 19 5.08936H12.236C11.8645 5.08934 11.5004 4.98586 11.1844 4.79051C10.8684 4.59516 10.6131 4.31567 10.447 3.98336L9.553 2.19536C9.38687 1.86289 9.13138 1.58329 8.8152 1.38793C8.49902 1.19258 8.13466 1.08918 7.763 1.08936H3C2.46957 1.08936 1.96086 1.30007 1.58579 1.67514C1.21071 2.05021 1 2.55892 1 3.08936V17.0894C1 17.6198 1.21071 18.1285 1.58579 18.5036C1.96086 18.8786 2.46957 19.0894 3 19.0894H19C19.5304 19.0894 20.0391 18.8786 20.4142 18.5036C20.7893 18.1285 21 17.6198 21 17.0894Z" stroke="white" stroke-linecap="round" stroke-linejoin="round"/>
</svg>
