<svg width="24" height="24" viewBox="0 0 24 24" fill="none" xmlns="http://www.w3.org/2000/svg">
<g clip-path="url(#clip0_801_1941)">
<path d="M12 1.33325C9.89035 1.33325 7.82806 1.95884 6.07393 3.13091C4.31981 4.30298 2.95263 5.96888 2.1453 7.91796C1.33797 9.86704 1.12673 12.0118 1.53831 14.0809C1.94988 16.15 2.96578 18.0506 4.45754 19.5424C5.9493 21.0342 7.84992 22.0501 9.91905 22.4616C11.9882 22.8732 14.1329 22.662 16.082 21.8546C18.031 21.0473 19.697 19.6801 20.869 17.926C22.0411 16.1719 22.6667 14.1096 22.6667 11.9999C22.6667 9.17094 21.5429 6.45783 19.5425 4.45745C17.5421 2.45706 14.829 1.33325 12 1.33325ZM12 21.3333C10.1541 21.3333 8.34955 20.7859 6.81469 19.7603C5.27983 18.7347 4.08356 17.2771 3.37714 15.5716C2.67072 13.8662 2.48589 11.9896 2.84602 10.1791C3.20615 8.36859 4.09506 6.70554 5.40035 5.40025C6.70564 4.09496 8.36868 3.20605 10.1792 2.84592C11.9897 2.48579 13.8663 2.67063 15.5717 3.37704C17.2772 4.08346 18.7348 5.27974 19.7604 6.8146C20.786 8.34945 21.3333 10.154 21.3333 11.9999C21.3333 14.4753 20.35 16.8492 18.5997 18.5996C16.8493 20.3499 14.4754 21.3333 12 21.3333Z" fill="white"/>
<path d="M12.1933 5.94672C11.4709 5.93478 10.7547 6.0821 10.0956 6.37822C9.43657 6.67434 8.85081 7.11198 8.37999 7.66005C8.31458 7.72067 8.262 7.79379 8.22535 7.8751C8.18871 7.9564 8.16875 8.04423 8.16666 8.13338C8.16661 8.21564 8.18311 8.29706 8.21518 8.37281C8.24725 8.44856 8.29422 8.51708 8.35331 8.5743C8.4124 8.63153 8.48239 8.67628 8.55913 8.7059C8.63587 8.73552 8.71778 8.7494 8.79999 8.74672C8.97611 8.74235 9.14451 8.67357 9.27332 8.55338C9.62963 8.13584 10.0722 7.80044 10.5705 7.57027C11.0688 7.3401 11.6111 7.22062 12.16 7.22005C13.7333 7.22005 14.7133 8.23338 14.7133 9.49338V9.52672C14.7133 11.0001 13.54 11.8201 11.6867 11.9601C11.6116 11.9629 11.538 11.9817 11.4707 12.015C11.4034 12.0483 11.3439 12.0954 11.296 12.1533C11.2482 12.2112 11.2132 12.2786 11.1932 12.351C11.1732 12.4233 11.1687 12.4991 11.18 12.5734C11.18 12.5734 11.18 14.1201 11.18 14.4067C11.1966 14.5717 11.2741 14.7246 11.3973 14.8356C11.5206 14.9465 11.6808 15.0075 11.8467 15.0067H11.92C12.085 14.9901 12.2379 14.9126 12.3489 14.7894C12.4598 14.6661 12.5208 14.5059 12.52 14.3401V12.9667C14.52 12.6867 16.14 11.6334 16.14 9.44672V9.41338C16.12 7.41338 14.56 5.94672 12.1933 5.94672Z" fill="white"/>
<path d="M11.8533 18.3C12.3136 18.3 12.6867 17.9269 12.6867 17.4666C12.6867 17.0064 12.3136 16.6333 11.8533 16.6333C11.3931 16.6333 11.02 17.0064 11.02 17.4666C11.02 17.9269 11.3931 18.3 11.8533 18.3Z" fill="white"/>
</g>
<defs>
<clipPath id="clip0_801_1941">
<rect width="24" height="24" fill="white"/>
</clipPath>
</defs>
</svg>
