<svg width="20" height="25" viewBox="0 0 20 25" fill="none" xmlns="http://www.w3.org/2000/svg">
<path d="M17.4563 8.06309H13.7282C13.4166 8.06309 13.1621 8.31757 13.1621 8.62911C13.1621 8.94064 13.4166 9.19512 13.7282 9.19512H17.4563C18.17 9.19512 18.7544 9.77948 18.7544 10.4932V21.6776C18.7544 22.3914 18.17 22.9757 17.4563 22.9757H2.54369C1.82999 22.9757 1.24563 22.3914 1.24563 21.6776V10.4932C1.24563 9.77948 1.82999 9.19512 2.54369 9.19512H6.73786C7.0494 9.19512 7.30388 8.94064 7.30388 8.62911C7.30388 8.31757 7.0494 8.06309 6.73786 8.06309H2.54369C1.20691 8.06309 0.113593 9.1564 0.113593 10.4932V21.6776C0.113593 23.0144 1.20691 24.1077 2.54369 24.1077H17.4563C18.7931 24.1077 19.8864 23.0144 19.8864 21.6776V10.4932C19.8864 9.1564 18.7931 8.06309 17.4563 8.06309Z" fill="white" stroke="white" stroke-width="0.2"/>
<path d="M5.47873 11.2633C5.25327 11.4888 5.25327 11.8317 5.47873 12.0572L9.603 16.1815C9.71436 16.2928 9.85607 16.3506 9.99993 16.3506C10.1438 16.3506 10.2855 16.2928 10.3969 16.1815L14.5211 12.0572C14.7466 11.8317 14.7466 11.4888 14.5211 11.2633C14.2957 11.0379 13.9527 11.0379 13.7273 11.2633L10.5659 14.4247V1.26997C10.5659 0.958435 10.3115 0.703955 9.99993 0.703955C9.68839 0.703955 9.43391 0.958435 9.43391 1.26997V14.4247L6.27258 11.2633C6.04712 11.0379 5.70419 11.0379 5.47873 11.2633Z" fill="white" stroke="white" stroke-width="0.2"/>
</svg>
