<svg width="24" height="25" viewBox="0 0 24 25" fill="none" xmlns="http://www.w3.org/2000/svg">
<path d="M9.142 22.2465C7.48803 21.7526 5.99009 20.839 4.794 19.5945C5.17884 19.138 5.41874 18.5771 5.483 17.9836C5.54726 17.39 5.43296 16.7908 5.15472 16.2626C4.87649 15.7343 4.44698 15.3012 3.92115 15.0184C3.39531 14.7357 2.79708 14.6163 2.203 14.6755C2.06766 14.0125 1.99965 13.3376 2 12.661C2 11.616 2.16 10.608 2.458 9.66096H2.5C3.00988 9.66112 3.51139 9.53133 3.95717 9.28384C4.40295 9.03634 4.7783 8.67931 5.04777 8.24646C5.31724 7.8136 5.47194 7.31921 5.49726 6.80996C5.52259 6.30071 5.4177 5.79341 5.1925 5.33596C6.3648 4.24437 7.78253 3.45087 9.326 3.02246C9.57719 3.51566 9.95992 3.92976 10.4319 4.21894C10.9038 4.50811 11.4465 4.6611 12 4.66096C12.5535 4.6611 13.0962 4.50811 13.5681 4.21894C14.0401 3.92976 14.4228 3.51566 14.674 3.02246C16.2175 3.45087 17.6352 4.24437 18.8075 5.33596C18.5807 5.79662 18.4759 6.30778 18.5031 6.82054C18.5304 7.33329 18.6888 7.83047 18.9632 8.26447C19.2376 8.69848 19.6188 9.05479 20.0703 9.2993C20.5219 9.54382 21.0286 9.66834 21.542 9.66096C21.8465 10.6318 22.0009 11.6435 22 12.661C22 13.351 21.93 14.025 21.797 14.676C21.2029 14.6168 20.6047 14.7362 20.0789 15.0189C19.553 15.3017 19.1235 15.7348 18.8453 16.2631C18.567 16.7913 18.4527 17.3905 18.517 17.9841C18.5813 18.5776 18.8212 19.1385 19.206 19.595C18.0099 20.8393 16.5119 21.7528 14.858 22.2465C14.6638 21.6411 14.2824 21.1131 13.7687 20.7384C13.2551 20.3638 12.6357 20.1619 12 20.1619C11.3643 20.1619 10.7449 20.3638 10.2313 20.7384C9.71765 21.1131 9.33623 21.6411 9.142 22.2465Z" stroke="white" stroke-width="1.5" stroke-linejoin="round"/>
<path d="M12 16.1609C12.4596 16.1609 12.9148 16.0704 13.3394 15.8945C13.764 15.7186 14.1499 15.4608 14.4749 15.1358C14.7999 14.8108 15.0577 14.4249 15.2336 14.0003C15.4095 13.5756 15.5 13.1205 15.5 12.6609C15.5 12.2013 15.4095 11.7461 15.2336 11.3215C15.0577 10.8969 14.7999 10.511 14.4749 10.186C14.1499 9.86101 13.764 9.6032 13.3394 9.42731C12.9148 9.25142 12.4596 9.16089 12 9.16089C11.0717 9.16089 10.1815 9.52964 9.52513 10.186C8.86875 10.8424 8.5 11.7326 8.5 12.6609C8.5 13.5891 8.86875 14.4794 9.52513 15.1358C10.1815 15.7921 11.0717 16.1609 12 16.1609V16.1609Z" stroke="white" stroke-width="1.5" stroke-linejoin="round"/>
</svg>
