<svg width="84" height="84" viewBox="0 0 84 84" fill="none" xmlns="http://www.w3.org/2000/svg">
<path d="M74.2518 0H10.0481C4.92775 0 0.776855 3.58172 0.776855 8V76C0.776855 80.4183 4.92775 84 10.0481 84H74.2518C79.3722 84 83.5231 80.4183 83.5231 76V8C83.5231 3.58172 79.3722 0 74.2518 0Z" fill="#5E81F4" fill-opacity="0.1"/>
<path d="M42.1706 31H43.7113V33.09C46.4695 33.106 49.2169 33.061 51.9682 33.106C52.102 33.0884 52.2381 33.1021 52.366 33.146C52.4938 33.1899 52.6101 33.2629 52.706 33.3593C52.8018 33.4558 52.8748 33.5732 52.9192 33.7026C52.9635 33.832 52.9782 33.97 52.9621 34.106C53.0055 39.253 52.9523 44.406 52.9877 49.551C53.0451 50.0911 52.959 50.637 52.7385 51.132C52.3386 51.3434 51.8872 51.4333 51.4382 51.391C48.8613 51.378 46.2882 51.383 43.7113 51.383V53.473H42.1017C38.184 52.747 34.2565 52.08 30.331 51.383C30.331 45.287 30.331 39.192 30.331 33.098C34.2762 32.4 38.2254 31.713 42.1706 31Z" fill="#2A5699"/>
<path d="M43.7105 33.873H52.2048V50.596H43.7105V48.506H50.4031V47.46H43.7105V46.154H50.4031V45.109H43.7105V43.802H50.4031V42.757H43.7105V41.45H50.4031V40.405H43.7105V39.099H50.4031V38.054H43.7105V36.747H50.4031V35.702H43.7105V33.873Z" fill="white"/>
<path d="M35.6494 38.4925C36.142 38.4635 36.6276 38.4425 37.1162 38.4165C37.459 40.1805 37.8058 41.9415 38.1791 43.6975C38.4746 41.8845 38.7918 40.0765 39.1031 38.2655C39.6183 38.2475 40.1325 38.2185 40.6447 38.1875C40.0626 40.7195 39.5533 43.2725 38.9179 45.7875C38.4884 46.0145 37.8442 45.7775 37.3349 45.8135C36.9921 44.0835 36.5931 42.3645 36.2878 40.6265C35.9863 42.3145 35.5982 43.9865 35.2505 45.6645C34.756 45.6385 34.2601 45.6082 33.763 45.5735C33.3306 43.2735 32.838 40.9865 32.4341 38.6865C32.8745 38.6655 33.3207 38.6475 33.7571 38.6315C34.0221 40.2955 34.3235 41.9525 34.555 43.6195C34.9175 41.9095 35.2889 40.2015 35.6494 38.4925Z" fill="white"/>
</svg>
