<svg width="24" height="18" viewBox="0 0 24 18" fill="none" xmlns="http://www.w3.org/2000/svg">
<path d="M23.681 11.8298C23.6811 11.8826 23.6698 11.9348 23.6478 11.9829C23.6257 12.0309 23.5935 12.0736 23.5534 12.1079L17.4287 17.3012C17.3756 17.3462 17.3107 17.3751 17.2417 17.3845C17.1727 17.3939 17.1025 17.3833 17.0393 17.3541C16.9761 17.3248 16.9226 17.2781 16.8851 17.2195C16.8476 17.1608 16.8277 17.0926 16.8277 17.023V14.7952H6.80609C6.70931 14.7952 6.61648 14.7567 6.54805 14.6883C6.47961 14.6198 6.44116 14.527 6.44116 14.4302C6.44116 14.3334 6.47961 14.2406 6.54805 14.1722C6.61648 14.1037 6.70931 14.0653 6.80609 14.0653H17.1926C17.2894 14.0653 17.3822 14.1037 17.4507 14.1722C17.5191 14.2406 17.5575 14.3334 17.5575 14.4302V16.2383L22.7508 11.8336L17.5575 7.42889V9.23696C17.5575 9.33374 17.5191 9.42657 17.4507 9.495C17.3822 9.56344 17.2894 9.60189 17.1926 9.60189H7.1723V11.8298C7.17227 11.8994 7.15233 11.9675 7.11483 12.0262C7.07733 12.0849 7.02383 12.1316 6.96065 12.1608C6.89747 12.19 6.82724 12.2006 6.75826 12.1912C6.68927 12.1819 6.6244 12.153 6.57131 12.1079L0.446584 6.91849C0.406242 6.88423 0.373834 6.84161 0.351609 6.79358C0.329383 6.74555 0.317871 6.69326 0.317871 6.64033C0.317871 6.58741 0.329383 6.53511 0.351609 6.48708C0.373834 6.43904 0.406242 6.39642 0.446584 6.36217L6.57131 1.16891C6.6244 1.12387 6.68927 1.09496 6.75826 1.0856C6.82724 1.07623 6.89747 1.08678 6.96065 1.11603C7.02383 1.14527 7.07733 1.19198 7.11483 1.25063C7.15233 1.30929 7.17227 1.37746 7.1723 1.44708V3.67876H17.1939C17.2907 3.67876 17.3835 3.71722 17.4519 3.78565C17.5204 3.85409 17.5588 3.94691 17.5588 4.0437C17.5588 4.14049 17.5204 4.23331 17.4519 4.30174C17.3835 4.37018 17.2907 4.40864 17.1939 4.40864H6.80609C6.71019 4.40797 6.6184 4.36957 6.55059 4.30175C6.48277 4.23394 6.44438 4.14215 6.44371 4.04625V2.23563L1.2479 6.64033L6.44371 11.045V9.23696C6.44371 9.14017 6.48216 9.04735 6.5506 8.97891C6.61904 8.91047 6.71186 8.87203 6.80864 8.87203H16.8302V6.64033C16.8303 6.57071 16.8502 6.50255 16.8877 6.44389C16.9252 6.38523 16.9787 6.33853 17.0419 6.30929C17.1051 6.28004 17.1753 6.26948 17.2443 6.27885C17.3133 6.28822 17.3781 6.31713 17.4312 6.36217L23.5559 11.5554C23.5961 11.5898 23.6283 11.6325 23.6503 11.6805C23.6723 11.7285 23.6837 11.7808 23.6835 11.8336L23.681 11.8298Z" fill="white" stroke="white" stroke-width="0.5"/>
</svg>
