<svg width="24" height="21" viewBox="0 0 24 21" fill="none" xmlns="http://www.w3.org/2000/svg">
<path d="M17 19.3752V17.3752C17 16.3144 16.5786 15.297 15.8284 14.5468C15.0783 13.7967 14.0609 13.3752 13 13.3752H5C3.93913 13.3752 2.92172 13.7967 2.17157 14.5468C1.42143 15.297 1 16.3144 1 17.3752V19.3752" stroke="white" stroke-width="1.5" stroke-linecap="round" stroke-linejoin="round"/>
<path d="M9 9.37524C11.2091 9.37524 13 7.58438 13 5.37524C13 3.16611 11.2091 1.37524 9 1.37524C6.79086 1.37524 5 3.16611 5 5.37524C5 7.58438 6.79086 9.37524 9 9.37524Z" stroke="white" stroke-width="1.5" stroke-linecap="round" stroke-linejoin="round"/>
<path d="M23 19.3751V17.3751C22.9993 16.4889 22.7044 15.6279 22.1614 14.9274C21.6184 14.227 20.8581 13.7267 20 13.5051M16 1.50513C16.8604 1.72543 17.623 2.22583 18.1676 2.92744C18.7122 3.62905 19.0078 4.49196 19.0078 5.38013C19.0078 6.2683 18.7122 7.13121 18.1676 7.83282C17.623 8.53443 16.8604 9.03483 16 9.25513" stroke="white" stroke-width="1.5" stroke-linecap="round" stroke-linejoin="round"/>
</svg>
