<svg width="24" height="25" viewBox="0 0 24 25" fill="none" xmlns="http://www.w3.org/2000/svg">
<path d="M5.25 5.33936L6.1875 20.3394C6.23203 21.2061 6.8625 21.8394 7.6875 21.8394H16.3125C17.1408 21.8394 17.7595 21.2061 17.8125 20.3394L18.75 5.33936" stroke="white" stroke-linecap="round" stroke-linejoin="round"/>
<path d="M3.75 5.33936H20.25Z" fill="white"/>
<path d="M3.75 5.33936H20.25" stroke="white" stroke-miterlimit="10" stroke-linecap="round"/>
<path d="M9 5.33936V3.46436C8.99957 3.3165 9.02837 3.17002 9.08475 3.03333C9.14114 2.89664 9.22399 2.77245 9.32854 2.6679C9.43309 2.56335 9.55728 2.4805 9.69397 2.42411C9.83066 2.36773 9.97714 2.33893 10.125 2.33936H13.875C14.0229 2.33893 14.1693 2.36773 14.306 2.42411C14.4427 2.4805 14.5669 2.56335 14.6715 2.6679C14.776 2.77245 14.8589 2.89664 14.9152 3.03333C14.9716 3.17002 15.0004 3.3165 15 3.46436V5.33936M12 8.33936V18.8394M8.625 8.33936L9 18.8394M15.375 8.33936L15 18.8394" stroke="white" stroke-linecap="round" stroke-linejoin="round"/>
</svg>
